<mxfile host="app.diagrams.net" modified="2022-09-03T00:53:11.398Z" agent="5.0 (X11; Linux x86_64) AppleWebKit/537.36 (KHTML, like Gecko) Chrome/104.0.0.0 Safari/537.36" etag="iPOJvjo3rLbRpkKVBwc-" version="20.2.8" type="github">
  <diagram id="wmLqz282Bcjy7ACeYt6-" name="Pagina-1">
    <mxGraphModel dx="2063" dy="694" grid="1" gridSize="10" guides="1" tooltips="1" connect="1" arrows="1" fold="1" page="1" pageScale="1" pageWidth="827" pageHeight="1169" math="0" shadow="0">
      <root>
        <mxCell id="0" />
        <mxCell id="1" parent="0" />
        <mxCell id="tRNiCB5t0n9jLSA73XpE-9" value="" style="rounded=1;whiteSpace=wrap;html=1;fillColor=none;dashed=1;" parent="1" vertex="1">
          <mxGeometry x="-400" y="239" width="510" height="101" as="geometry" />
        </mxCell>
        <mxCell id="tRNiCB5t0n9jLSA73XpE-10" value="" style="rounded=1;whiteSpace=wrap;html=1;fillColor=none;dashed=1;" parent="1" vertex="1">
          <mxGeometry x="-403" y="459" width="697" height="101" as="geometry" />
        </mxCell>
        <mxCell id="ycoi92LknjYEjzsV41Iz-5" style="edgeStyle=orthogonalEdgeStyle;rounded=0;orthogonalLoop=1;jettySize=auto;html=1;exitX=0.5;exitY=1;exitDx=0;exitDy=0;exitPerimeter=0;entryX=0.468;entryY=0.004;entryDx=0;entryDy=0;entryPerimeter=0;" parent="1" source="ycoi92LknjYEjzsV41Iz-3" target="ycoi92LknjYEjzsV41Iz-4" edge="1">
          <mxGeometry relative="1" as="geometry" />
        </mxCell>
        <mxCell id="ycoi92LknjYEjzsV41Iz-3" value="" style="outlineConnect=0;dashed=0;verticalLabelPosition=bottom;verticalAlign=top;align=center;html=1;shape=mxgraph.aws3.internet_2;fillColor=#D2D3D3;gradientColor=none;" parent="1" vertex="1">
          <mxGeometry x="-510" y="155" width="79.5" height="54" as="geometry" />
        </mxCell>
        <mxCell id="tRNiCB5t0n9jLSA73XpE-3" value="" style="edgeStyle=orthogonalEdgeStyle;rounded=0;orthogonalLoop=1;jettySize=auto;html=1;entryX=0;entryY=0.5;entryDx=0;entryDy=0;" parent="1" source="ycoi92LknjYEjzsV41Iz-4" target="tRNiCB5t0n9jLSA73XpE-5" edge="1">
          <mxGeometry relative="1" as="geometry">
            <mxPoint x="-400" y="310" as="targetPoint" />
            <Array as="points">
              <mxPoint x="-420" y="387" />
              <mxPoint x="-420" y="290" />
            </Array>
          </mxGeometry>
        </mxCell>
        <mxCell id="ycoi92LknjYEjzsV41Iz-4" value="" style="points=[];aspect=fixed;html=1;align=center;shadow=0;dashed=0;image;image=img/lib/allied_telesis/computer_and_terminals/Personal_Computer.svg;" parent="1" vertex="1">
          <mxGeometry x="-492" y="356.2" width="45.6" height="61.800000000000004" as="geometry" />
        </mxCell>
        <mxCell id="ycoi92LknjYEjzsV41Iz-6" value="sra-tools queries" style="text;html=1;align=center;verticalAlign=middle;resizable=0;points=[];autosize=1;strokeColor=none;fillColor=none;rotation=-90;" parent="1" vertex="1">
          <mxGeometry x="-537" y="267" width="110" height="30" as="geometry" />
        </mxCell>
        <mxCell id="k0WIdiqC_nadDopJg0VI-49" style="edgeStyle=orthogonalEdgeStyle;rounded=0;orthogonalLoop=1;jettySize=auto;html=1;exitX=0.5;exitY=1;exitDx=0;exitDy=0;exitPerimeter=0;entryX=0;entryY=0.5;entryDx=0;entryDy=0;startArrow=none;startFill=0;endArrow=classic;endFill=1;" edge="1" parent="1" source="tRNiCB5t0n9jLSA73XpE-1" target="k0WIdiqC_nadDopJg0VI-47">
          <mxGeometry relative="1" as="geometry" />
        </mxCell>
        <mxCell id="tRNiCB5t0n9jLSA73XpE-1" value="" style="shape=cylinder3;whiteSpace=wrap;html=1;boundedLbl=1;backgroundOutline=1;size=15;" parent="1" vertex="1">
          <mxGeometry x="-489.2" y="420" width="40" height="50" as="geometry" />
        </mxCell>
        <mxCell id="tRNiCB5t0n9jLSA73XpE-4" value="Bulk RNA-seq" style="text;html=1;align=center;verticalAlign=middle;resizable=0;points=[];autosize=1;strokeColor=none;fillColor=none;" parent="1" vertex="1">
          <mxGeometry x="-123" y="210" width="100" height="30" as="geometry" />
        </mxCell>
        <mxCell id="tRNiCB5t0n9jLSA73XpE-15" value="" style="edgeStyle=orthogonalEdgeStyle;rounded=0;orthogonalLoop=1;jettySize=auto;html=1;" parent="1" source="tRNiCB5t0n9jLSA73XpE-5" target="tRNiCB5t0n9jLSA73XpE-14" edge="1">
          <mxGeometry relative="1" as="geometry" />
        </mxCell>
        <mxCell id="tRNiCB5t0n9jLSA73XpE-5" value="Trimmed libraries" style="rounded=0;whiteSpace=wrap;html=1;fillColor=none;" parent="1" vertex="1">
          <mxGeometry x="-295" y="275" width="70" height="30" as="geometry" />
        </mxCell>
        <mxCell id="tRNiCB5t0n9jLSA73XpE-13" value="" style="edgeStyle=orthogonalEdgeStyle;rounded=0;orthogonalLoop=1;jettySize=auto;html=1;" parent="1" source="tRNiCB5t0n9jLSA73XpE-7" target="tRNiCB5t0n9jLSA73XpE-12" edge="1">
          <mxGeometry relative="1" as="geometry" />
        </mxCell>
        <mxCell id="k0WIdiqC_nadDopJg0VI-2" style="edgeStyle=orthogonalEdgeStyle;rounded=0;orthogonalLoop=1;jettySize=auto;html=1;exitX=0;exitY=0.5;exitDx=0;exitDy=0;entryX=0.977;entryY=0.49;entryDx=0;entryDy=0;entryPerimeter=0;startArrow=classic;startFill=1;endArrow=none;endFill=0;" edge="1" parent="1" source="tRNiCB5t0n9jLSA73XpE-7" target="ycoi92LknjYEjzsV41Iz-4">
          <mxGeometry relative="1" as="geometry">
            <Array as="points">
              <mxPoint x="-420" y="510" />
              <mxPoint x="-420" y="387" />
            </Array>
          </mxGeometry>
        </mxCell>
        <mxCell id="tRNiCB5t0n9jLSA73XpE-7" value="Single cell libraries demultiplexed" style="rounded=0;whiteSpace=wrap;html=1;fillColor=none;" parent="1" vertex="1">
          <mxGeometry x="-300" y="480" width="70" height="60" as="geometry" />
        </mxCell>
        <mxCell id="tRNiCB5t0n9jLSA73XpE-11" value="scRNA-seq" style="text;html=1;align=center;verticalAlign=middle;resizable=0;points=[];autosize=1;strokeColor=none;fillColor=none;" parent="1" vertex="1">
          <mxGeometry x="-117" y="429" width="80" height="30" as="geometry" />
        </mxCell>
        <mxCell id="tRNiCB5t0n9jLSA73XpE-29" value="" style="edgeStyle=orthogonalEdgeStyle;rounded=0;orthogonalLoop=1;jettySize=auto;html=1;" parent="1" source="tRNiCB5t0n9jLSA73XpE-12" target="tRNiCB5t0n9jLSA73XpE-28" edge="1">
          <mxGeometry relative="1" as="geometry" />
        </mxCell>
        <mxCell id="tRNiCB5t0n9jLSA73XpE-12" value="Trimmed&lt;br&gt;llibraries" style="rounded=0;whiteSpace=wrap;html=1;fillColor=none;" parent="1" vertex="1">
          <mxGeometry x="-126" y="495" width="70" height="30" as="geometry" />
        </mxCell>
        <mxCell id="tRNiCB5t0n9jLSA73XpE-25" value="" style="edgeStyle=orthogonalEdgeStyle;rounded=0;orthogonalLoop=1;jettySize=auto;html=1;" parent="1" source="tRNiCB5t0n9jLSA73XpE-14" target="tRNiCB5t0n9jLSA73XpE-24" edge="1">
          <mxGeometry relative="1" as="geometry" />
        </mxCell>
        <mxCell id="tRNiCB5t0n9jLSA73XpE-14" value="Gene expression vectors for every sample" style="rounded=0;whiteSpace=wrap;html=1;fillColor=none;" parent="1" vertex="1">
          <mxGeometry x="-145" y="263" width="92" height="55" as="geometry" />
        </mxCell>
        <mxCell id="tRNiCB5t0n9jLSA73XpE-16" value="Trimming adapters" style="text;html=1;align=center;verticalAlign=middle;resizable=0;points=[];autosize=1;strokeColor=none;fillColor=none;" parent="1" vertex="1">
          <mxGeometry x="-409" y="264" width="120" height="30" as="geometry" />
        </mxCell>
        <mxCell id="tRNiCB5t0n9jLSA73XpE-17" value="Salmon&lt;br&gt;quantification" style="text;html=1;align=center;verticalAlign=middle;resizable=0;points=[];autosize=1;strokeColor=none;fillColor=none;" parent="1" vertex="1">
          <mxGeometry x="-233" y="255" width="90" height="40" as="geometry" />
        </mxCell>
        <mxCell id="tRNiCB5t0n9jLSA73XpE-18" value="Alignment +&lt;br&gt;counting" style="text;html=1;align=center;verticalAlign=middle;resizable=0;points=[];autosize=1;strokeColor=none;fillColor=none;" parent="1" vertex="1">
          <mxGeometry x="-232" y="287" width="90" height="40" as="geometry" />
        </mxCell>
        <mxCell id="tRNiCB5t0n9jLSA73XpE-19" value="Sequence read archive or&lt;br&gt;Gene expression omnibus" style="text;html=1;align=center;verticalAlign=middle;resizable=0;points=[];autosize=1;strokeColor=none;fillColor=none;" parent="1" vertex="1">
          <mxGeometry x="-560" y="120" width="160" height="40" as="geometry" />
        </mxCell>
        <mxCell id="tRNiCB5t0n9jLSA73XpE-22" style="edgeStyle=orthogonalEdgeStyle;rounded=0;orthogonalLoop=1;jettySize=auto;html=1;exitX=0.5;exitY=1;exitDx=0;exitDy=0;exitPerimeter=0;entryX=0;entryY=0.5;entryDx=0;entryDy=0;entryPerimeter=0;" parent="1" source="tRNiCB5t0n9jLSA73XpE-20" target="tRNiCB5t0n9jLSA73XpE-1" edge="1">
          <mxGeometry relative="1" as="geometry" />
        </mxCell>
        <mxCell id="tRNiCB5t0n9jLSA73XpE-20" value="" style="outlineConnect=0;dashed=0;verticalLabelPosition=bottom;verticalAlign=top;align=center;html=1;shape=mxgraph.aws3.internet_2;fillColor=#D2D3D3;gradientColor=none;" parent="1" vertex="1">
          <mxGeometry x="-686" y="158" width="79.5" height="54" as="geometry" />
        </mxCell>
        <mxCell id="tRNiCB5t0n9jLSA73XpE-21" value="Reference genome/transcriptome +&lt;br&gt;annotation dataset +&lt;br&gt;tools indexes" style="text;html=1;align=center;verticalAlign=middle;resizable=0;points=[];autosize=1;strokeColor=none;fillColor=none;" parent="1" vertex="1">
          <mxGeometry x="-751" y="109" width="210" height="60" as="geometry" />
        </mxCell>
        <mxCell id="tRNiCB5t0n9jLSA73XpE-23" value="download" style="text;html=1;align=center;verticalAlign=middle;resizable=0;points=[];autosize=1;strokeColor=none;fillColor=none;rotation=-90;" parent="1" vertex="1">
          <mxGeometry x="-696.5" y="310" width="70" height="30" as="geometry" />
        </mxCell>
        <mxCell id="k0WIdiqC_nadDopJg0VI-20" value="" style="edgeStyle=orthogonalEdgeStyle;rounded=0;orthogonalLoop=1;jettySize=auto;html=1;startArrow=none;startFill=0;endArrow=classic;endFill=1;" edge="1" parent="1" source="tRNiCB5t0n9jLSA73XpE-24" target="k0WIdiqC_nadDopJg0VI-19">
          <mxGeometry relative="1" as="geometry">
            <Array as="points">
              <mxPoint x="43" y="330" />
            </Array>
          </mxGeometry>
        </mxCell>
        <mxCell id="k0WIdiqC_nadDopJg0VI-39" value="" style="edgeStyle=orthogonalEdgeStyle;rounded=0;orthogonalLoop=1;jettySize=auto;html=1;startArrow=none;startFill=0;endArrow=classic;endFill=1;" edge="1" parent="1" source="tRNiCB5t0n9jLSA73XpE-24" target="k0WIdiqC_nadDopJg0VI-38">
          <mxGeometry relative="1" as="geometry">
            <Array as="points">
              <mxPoint x="200" y="280" />
            </Array>
          </mxGeometry>
        </mxCell>
        <mxCell id="tRNiCB5t0n9jLSA73XpE-24" value="Significant expression values" style="rounded=0;whiteSpace=wrap;html=1;fillColor=none;" parent="1" vertex="1">
          <mxGeometry x="5" y="270" width="75" height="40" as="geometry" />
        </mxCell>
        <mxCell id="tRNiCB5t0n9jLSA73XpE-26" value="Barcode&lt;br&gt;demultiplexing" style="text;html=1;align=center;verticalAlign=middle;resizable=0;points=[];autosize=1;strokeColor=none;fillColor=none;" parent="1" vertex="1">
          <mxGeometry x="-397" y="508" width="100" height="40" as="geometry" />
        </mxCell>
        <mxCell id="tRNiCB5t0n9jLSA73XpE-27" value="Trimming adapters &lt;br&gt;for&amp;nbsp; demultiplexed&lt;br&gt;single cell libraries" style="text;html=1;align=center;verticalAlign=middle;resizable=0;points=[];autosize=1;strokeColor=none;fillColor=none;" parent="1" vertex="1">
          <mxGeometry x="-236" y="505" width="120" height="60" as="geometry" />
        </mxCell>
        <mxCell id="k0WIdiqC_nadDopJg0VI-11" value="" style="edgeStyle=orthogonalEdgeStyle;rounded=0;orthogonalLoop=1;jettySize=auto;html=1;startArrow=none;startFill=0;endArrow=classic;endFill=1;" edge="1" parent="1" source="tRNiCB5t0n9jLSA73XpE-28" target="k0WIdiqC_nadDopJg0VI-10">
          <mxGeometry relative="1" as="geometry" />
        </mxCell>
        <mxCell id="tRNiCB5t0n9jLSA73XpE-28" value="Gene expression matrix where every row is a cell expression vector" style="rounded=0;whiteSpace=wrap;html=1;fillColor=none;" parent="1" vertex="1">
          <mxGeometry x="24" y="483" width="106" height="55" as="geometry" />
        </mxCell>
        <mxCell id="tRNiCB5t0n9jLSA73XpE-30" value="Salmon &lt;br&gt;quantification&lt;br&gt;for single cell&lt;br&gt;libraries" style="text;html=1;align=center;verticalAlign=middle;resizable=0;points=[];autosize=1;strokeColor=none;fillColor=none;" parent="1" vertex="1">
          <mxGeometry x="-65" y="475" width="90" height="70" as="geometry" />
        </mxCell>
        <mxCell id="k0WIdiqC_nadDopJg0VI-1" value="QC and&lt;br&gt;filtering" style="text;html=1;align=center;verticalAlign=middle;resizable=0;points=[];autosize=1;strokeColor=none;fillColor=none;" vertex="1" parent="1">
          <mxGeometry x="-57" y="269" width="60" height="40" as="geometry" />
        </mxCell>
        <mxCell id="k0WIdiqC_nadDopJg0VI-3" value="Barcoded &lt;br&gt;scRNA-seq libraries" style="text;html=1;align=center;verticalAlign=middle;resizable=0;points=[];autosize=1;strokeColor=none;fillColor=none;rotation=-90;" vertex="1" parent="1">
          <mxGeometry x="-487" y="430" width="130" height="40" as="geometry" />
        </mxCell>
        <mxCell id="k0WIdiqC_nadDopJg0VI-4" value="Bulk RNA-seq &lt;br&gt;libraries" style="text;html=1;align=center;verticalAlign=middle;resizable=0;points=[];autosize=1;strokeColor=none;fillColor=none;rotation=-90;" vertex="1" parent="1">
          <mxGeometry x="-472" y="312" width="100" height="40" as="geometry" />
        </mxCell>
        <mxCell id="k0WIdiqC_nadDopJg0VI-8" value="QC and &lt;br&gt;filtering" style="text;html=1;align=center;verticalAlign=middle;resizable=0;points=[];autosize=1;strokeColor=none;fillColor=none;" vertex="1" parent="1">
          <mxGeometry x="139" y="488" width="60" height="40" as="geometry" />
        </mxCell>
        <mxCell id="k0WIdiqC_nadDopJg0VI-14" value="" style="edgeStyle=orthogonalEdgeStyle;rounded=0;orthogonalLoop=1;jettySize=auto;html=1;startArrow=none;startFill=0;endArrow=classic;endFill=1;" edge="1" parent="1" source="k0WIdiqC_nadDopJg0VI-10" target="k0WIdiqC_nadDopJg0VI-13">
          <mxGeometry relative="1" as="geometry" />
        </mxCell>
        <mxCell id="k0WIdiqC_nadDopJg0VI-16" value="" style="edgeStyle=orthogonalEdgeStyle;rounded=0;orthogonalLoop=1;jettySize=auto;html=1;startArrow=none;startFill=0;endArrow=classic;endFill=1;" edge="1" parent="1" source="k0WIdiqC_nadDopJg0VI-10" target="k0WIdiqC_nadDopJg0VI-15">
          <mxGeometry relative="1" as="geometry" />
        </mxCell>
        <mxCell id="k0WIdiqC_nadDopJg0VI-10" value="Significant expression values" style="rounded=0;whiteSpace=wrap;html=1;fillColor=none;" vertex="1" parent="1">
          <mxGeometry x="215" y="488" width="70" height="45" as="geometry" />
        </mxCell>
        <mxCell id="k0WIdiqC_nadDopJg0VI-23" value="" style="edgeStyle=orthogonalEdgeStyle;rounded=0;orthogonalLoop=1;jettySize=auto;html=1;startArrow=none;startFill=0;endArrow=classic;endFill=1;" edge="1" parent="1" source="k0WIdiqC_nadDopJg0VI-13" target="k0WIdiqC_nadDopJg0VI-22">
          <mxGeometry relative="1" as="geometry" />
        </mxCell>
        <mxCell id="k0WIdiqC_nadDopJg0VI-13" value="Mapped cells" style="rounded=0;whiteSpace=wrap;html=1;fillColor=none;" vertex="1" parent="1">
          <mxGeometry x="350" y="384" width="70" height="30" as="geometry" />
        </mxCell>
        <mxCell id="k0WIdiqC_nadDopJg0VI-32" value="" style="edgeStyle=orthogonalEdgeStyle;rounded=0;orthogonalLoop=1;jettySize=auto;html=1;startArrow=none;startFill=0;endArrow=classic;endFill=1;" edge="1" parent="1" source="k0WIdiqC_nadDopJg0VI-15" target="k0WIdiqC_nadDopJg0VI-31">
          <mxGeometry relative="1" as="geometry" />
        </mxCell>
        <mxCell id="k0WIdiqC_nadDopJg0VI-15" value="Corrected expression matrix" style="rounded=0;whiteSpace=wrap;html=1;fillColor=none;" vertex="1" parent="1">
          <mxGeometry x="350" y="629" width="70" height="40" as="geometry" />
        </mxCell>
        <mxCell id="k0WIdiqC_nadDopJg0VI-17" value="Dimensionality &lt;br&gt;reduction" style="text;html=1;align=center;verticalAlign=middle;resizable=0;points=[];autosize=1;strokeColor=none;fillColor=none;rotation=-90;" vertex="1" parent="1">
          <mxGeometry x="334" y="446" width="100" height="40" as="geometry" />
        </mxCell>
        <mxCell id="k0WIdiqC_nadDopJg0VI-18" value="Normalization and &lt;br&gt;imputation" style="text;html=1;align=center;verticalAlign=middle;resizable=0;points=[];autosize=1;strokeColor=none;fillColor=none;rotation=-90;" vertex="1" parent="1">
          <mxGeometry x="324" y="546" width="120" height="40" as="geometry" />
        </mxCell>
        <mxCell id="k0WIdiqC_nadDopJg0VI-28" style="edgeStyle=orthogonalEdgeStyle;rounded=0;orthogonalLoop=1;jettySize=auto;html=1;exitX=1;exitY=0.5;exitDx=0;exitDy=0;entryX=0.5;entryY=0;entryDx=0;entryDy=0;startArrow=none;startFill=0;endArrow=classic;endFill=1;shape=link;" edge="1" parent="1" source="k0WIdiqC_nadDopJg0VI-19" target="k0WIdiqC_nadDopJg0VI-25">
          <mxGeometry relative="1" as="geometry" />
        </mxCell>
        <mxCell id="k0WIdiqC_nadDopJg0VI-19" value="Cell populations" style="rounded=0;whiteSpace=wrap;html=1;fillColor=none;" vertex="1" parent="1">
          <mxGeometry x="497.5" y="318" width="75" height="40" as="geometry" />
        </mxCell>
        <mxCell id="k0WIdiqC_nadDopJg0VI-26" value="" style="edgeStyle=orthogonalEdgeStyle;rounded=0;orthogonalLoop=1;jettySize=auto;html=1;startArrow=none;startFill=0;endArrow=classic;endFill=1;" edge="1" parent="1" source="k0WIdiqC_nadDopJg0VI-22" target="k0WIdiqC_nadDopJg0VI-25">
          <mxGeometry relative="1" as="geometry" />
        </mxCell>
        <mxCell id="k0WIdiqC_nadDopJg0VI-22" value="Grouped cells" style="rounded=0;whiteSpace=wrap;html=1;fillColor=none;" vertex="1" parent="1">
          <mxGeometry x="500" y="384" width="70" height="30" as="geometry" />
        </mxCell>
        <mxCell id="k0WIdiqC_nadDopJg0VI-24" value="Clustering" style="text;html=1;align=center;verticalAlign=middle;resizable=0;points=[];autosize=1;strokeColor=none;fillColor=none;" vertex="1" parent="1">
          <mxGeometry x="415" y="377" width="80" height="30" as="geometry" />
        </mxCell>
        <mxCell id="k0WIdiqC_nadDopJg0VI-36" style="edgeStyle=orthogonalEdgeStyle;rounded=0;orthogonalLoop=1;jettySize=auto;html=1;exitX=0.25;exitY=1;exitDx=0;exitDy=0;entryX=0;entryY=0.25;entryDx=0;entryDy=0;startArrow=none;startFill=0;endArrow=classic;endFill=1;" edge="1" parent="1" source="k0WIdiqC_nadDopJg0VI-25" target="k0WIdiqC_nadDopJg0VI-31">
          <mxGeometry relative="1" as="geometry">
            <Array as="points">
              <mxPoint x="668" y="520" />
              <mxPoint x="440" y="520" />
              <mxPoint x="440" y="634" />
            </Array>
          </mxGeometry>
        </mxCell>
        <mxCell id="k0WIdiqC_nadDopJg0VI-25" value="Typed cells" style="rounded=0;whiteSpace=wrap;html=1;fillColor=none;" vertex="1" parent="1">
          <mxGeometry x="650" y="384" width="70" height="30" as="geometry" />
        </mxCell>
        <mxCell id="k0WIdiqC_nadDopJg0VI-27" value="Cell &lt;br&gt;annotation" style="text;html=1;align=center;verticalAlign=middle;resizable=0;points=[];autosize=1;strokeColor=none;fillColor=none;" vertex="1" parent="1">
          <mxGeometry x="563" y="379" width="80" height="40" as="geometry" />
        </mxCell>
        <mxCell id="k0WIdiqC_nadDopJg0VI-29" value="Bulk deconvolution" style="text;html=1;align=center;verticalAlign=middle;resizable=0;points=[];autosize=1;strokeColor=none;fillColor=none;" vertex="1" parent="1">
          <mxGeometry x="200" y="324" width="120" height="30" as="geometry" />
        </mxCell>
        <mxCell id="k0WIdiqC_nadDopJg0VI-30" value="Compare, validate and&lt;br&gt;integrate" style="text;html=1;align=center;verticalAlign=middle;resizable=0;points=[];autosize=1;strokeColor=none;fillColor=none;" vertex="1" parent="1">
          <mxGeometry x="571" y="301" width="140" height="40" as="geometry" />
        </mxCell>
        <mxCell id="k0WIdiqC_nadDopJg0VI-43" value="" style="edgeStyle=orthogonalEdgeStyle;rounded=0;orthogonalLoop=1;jettySize=auto;html=1;startArrow=none;startFill=0;endArrow=classic;endFill=1;entryX=0.5;entryY=0;entryDx=0;entryDy=0;" edge="1" parent="1" source="k0WIdiqC_nadDopJg0VI-31" target="k0WIdiqC_nadDopJg0VI-47">
          <mxGeometry relative="1" as="geometry">
            <mxPoint x="645" y="736" as="targetPoint" />
          </mxGeometry>
        </mxCell>
        <mxCell id="k0WIdiqC_nadDopJg0VI-31" value="Differentially expressed genes for cell groups" style="rounded=0;whiteSpace=wrap;html=1;fillColor=none;" vertex="1" parent="1">
          <mxGeometry x="600" y="620" width="90" height="60" as="geometry" />
        </mxCell>
        <mxCell id="k0WIdiqC_nadDopJg0VI-33" value="Differential&amp;nbsp;&lt;br&gt;expression" style="text;html=1;align=center;verticalAlign=middle;resizable=0;points=[];autosize=1;strokeColor=none;fillColor=none;" vertex="1" parent="1">
          <mxGeometry x="480" y="594" width="80" height="40" as="geometry" />
        </mxCell>
        <mxCell id="k0WIdiqC_nadDopJg0VI-37" value="Between cell&lt;br&gt;groups" style="text;html=1;align=center;verticalAlign=middle;resizable=0;points=[];autosize=1;strokeColor=none;fillColor=none;" vertex="1" parent="1">
          <mxGeometry x="475" y="645" width="90" height="40" as="geometry" />
        </mxCell>
        <mxCell id="k0WIdiqC_nadDopJg0VI-44" style="edgeStyle=orthogonalEdgeStyle;rounded=0;orthogonalLoop=1;jettySize=auto;html=1;exitX=1;exitY=0.5;exitDx=0;exitDy=0;startArrow=none;startFill=0;endArrow=classic;endFill=1;entryX=0.5;entryY=0;entryDx=0;entryDy=0;" edge="1" parent="1" source="k0WIdiqC_nadDopJg0VI-38" target="k0WIdiqC_nadDopJg0VI-48">
          <mxGeometry relative="1" as="geometry">
            <mxPoint x="746" y="736" as="targetPoint" />
          </mxGeometry>
        </mxCell>
        <mxCell id="k0WIdiqC_nadDopJg0VI-38" value="Differentially&lt;br&gt;Expressed genes" style="rounded=0;whiteSpace=wrap;html=1;fillColor=none;" vertex="1" parent="1">
          <mxGeometry x="160" y="145" width="80" height="50" as="geometry" />
        </mxCell>
        <mxCell id="k0WIdiqC_nadDopJg0VI-40" value="Differential&amp;nbsp;&lt;br&gt;expression" style="text;html=1;align=center;verticalAlign=middle;resizable=0;points=[];autosize=1;strokeColor=none;fillColor=none;" vertex="1" parent="1">
          <mxGeometry x="115" y="236.5" width="80" height="40" as="geometry" />
        </mxCell>
        <mxCell id="k0WIdiqC_nadDopJg0VI-41" value="Controls VS ALL" style="text;html=1;align=center;verticalAlign=middle;resizable=0;points=[];autosize=1;strokeColor=none;fillColor=none;" vertex="1" parent="1">
          <mxGeometry x="103" y="274.5" width="110" height="30" as="geometry" />
        </mxCell>
        <mxCell id="k0WIdiqC_nadDopJg0VI-52" style="rounded=0;orthogonalLoop=1;jettySize=auto;html=1;exitX=0.5;exitY=1;exitDx=0;exitDy=0;entryX=0.25;entryY=0;entryDx=0;entryDy=0;startArrow=none;startFill=0;endArrow=classic;endFill=1;" edge="1" parent="1" source="k0WIdiqC_nadDopJg0VI-47" target="k0WIdiqC_nadDopJg0VI-51">
          <mxGeometry relative="1" as="geometry" />
        </mxCell>
        <mxCell id="k0WIdiqC_nadDopJg0VI-47" value="Pathway embedding" style="rhombus;whiteSpace=wrap;html=1;" vertex="1" parent="1">
          <mxGeometry x="605" y="740" width="80" height="80" as="geometry" />
        </mxCell>
        <mxCell id="k0WIdiqC_nadDopJg0VI-53" style="edgeStyle=none;rounded=0;orthogonalLoop=1;jettySize=auto;html=1;exitX=0.5;exitY=1;exitDx=0;exitDy=0;entryX=0.75;entryY=0;entryDx=0;entryDy=0;startArrow=none;startFill=0;endArrow=classic;endFill=1;" edge="1" parent="1" source="k0WIdiqC_nadDopJg0VI-48" target="k0WIdiqC_nadDopJg0VI-51">
          <mxGeometry relative="1" as="geometry" />
        </mxCell>
        <mxCell id="k0WIdiqC_nadDopJg0VI-48" value="Pathway embedding" style="rhombus;whiteSpace=wrap;html=1;" vertex="1" parent="1">
          <mxGeometry x="710" y="740" width="80" height="80" as="geometry" />
        </mxCell>
        <mxCell id="k0WIdiqC_nadDopJg0VI-50" value="" style="endArrow=classic;html=1;rounded=0;edgeStyle=orthogonalEdgeStyle;curved=1;entryX=0;entryY=0.5;entryDx=0;entryDy=0;" edge="1" parent="1" target="k0WIdiqC_nadDopJg0VI-48">
          <mxGeometry width="50" height="50" relative="1" as="geometry">
            <mxPoint x="590" y="780" as="sourcePoint" />
            <mxPoint x="590" y="720" as="targetPoint" />
            <Array as="points">
              <mxPoint x="590" y="720" />
              <mxPoint x="700" y="720" />
              <mxPoint x="700" y="780" />
            </Array>
          </mxGeometry>
        </mxCell>
        <mxCell id="k0WIdiqC_nadDopJg0VI-57" style="edgeStyle=none;rounded=0;orthogonalLoop=1;jettySize=auto;html=1;exitX=0;exitY=0.5;exitDx=0;exitDy=0;entryX=1;entryY=0.5;entryDx=0;entryDy=0;startArrow=none;startFill=0;endArrow=classic;endFill=1;" edge="1" parent="1" source="k0WIdiqC_nadDopJg0VI-51" target="k0WIdiqC_nadDopJg0VI-56">
          <mxGeometry relative="1" as="geometry" />
        </mxCell>
        <mxCell id="k0WIdiqC_nadDopJg0VI-51" value="Embedded matrix containing single cell embeddings and bulk embeddings" style="rounded=0;whiteSpace=wrap;html=1;fillColor=none;" vertex="1" parent="1">
          <mxGeometry x="593" y="870" width="209" height="70" as="geometry" />
        </mxCell>
        <mxCell id="k0WIdiqC_nadDopJg0VI-54" value="Pathways and information related to pathways" style="text;html=1;align=center;verticalAlign=middle;resizable=0;points=[];autosize=1;strokeColor=none;fillColor=none;" vertex="1" parent="1">
          <mxGeometry x="-175" y="755" width="270" height="30" as="geometry" />
        </mxCell>
        <mxCell id="k0WIdiqC_nadDopJg0VI-56" value="" style="shape=image;html=1;verticalAlign=top;verticalLabelPosition=bottom;labelBackgroundColor=#ffffff;imageAspect=0;aspect=fixed;image=https://cdn0.iconfinder.com/data/icons/thin-line-icons-for-seo-and-development-1/64/Programming_Development_analysis-128.png;fillColor=none;" vertex="1" parent="1">
          <mxGeometry x="300" y="841" width="128" height="128" as="geometry" />
        </mxCell>
        <mxCell id="k0WIdiqC_nadDopJg0VI-58" value="Embedding analysis&lt;br&gt;and activity" style="text;html=1;align=center;verticalAlign=middle;resizable=0;points=[];autosize=1;strokeColor=none;fillColor=none;" vertex="1" parent="1">
          <mxGeometry x="447" y="884" width="130" height="40" as="geometry" />
        </mxCell>
        <mxCell id="k0WIdiqC_nadDopJg0VI-59" value="" style="verticalLabelPosition=bottom;sketch=0;html=1;fillColor=#282828;strokeColor=none;verticalAlign=top;pointerEvents=1;align=center;shape=mxgraph.cisco_safe.people_places_things_icons.icon2;" vertex="1" parent="1">
          <mxGeometry x="115" y="880" width="50" height="41" as="geometry" />
        </mxCell>
        <mxCell id="k0WIdiqC_nadDopJg0VI-60" value="" style="endArrow=classic;html=1;rounded=0;exitX=1.066;exitY=0.592;exitDx=0;exitDy=0;exitPerimeter=0;" edge="1" parent="1" source="k0WIdiqC_nadDopJg0VI-59" target="k0WIdiqC_nadDopJg0VI-56">
          <mxGeometry width="50" height="50" relative="1" as="geometry">
            <mxPoint x="240" y="990" as="sourcePoint" />
            <mxPoint x="290" y="940" as="targetPoint" />
          </mxGeometry>
        </mxCell>
        <mxCell id="k0WIdiqC_nadDopJg0VI-61" value="Experts&lt;br&gt;evaluation of&amp;nbsp;&lt;br&gt;the results" style="text;html=1;align=center;verticalAlign=middle;resizable=0;points=[];autosize=1;strokeColor=none;fillColor=none;" vertex="1" parent="1">
          <mxGeometry x="180" y="851" width="90" height="60" as="geometry" />
        </mxCell>
      </root>
    </mxGraphModel>
  </diagram>
</mxfile>
